<svg width="256" height="256" viewBox="0 0 128 128" xmlns="http://www.w3.org/2000/svg">
  <defs>
    <linearGradient id="treeGradient" x1="0%" y1="0%" x2="100%" y2="100%">
      <stop offset="0%" style="stop-color:#4CAF50;stop-opacity:1" />
      <stop offset="100%" style="stop-color:#2E7D32;stop-opacity:1" />
    </linearGradient>
    <linearGradient id="nodeGradient" x1="0%" y1="0%" x2="100%" y2="100%">
      <stop offset="0%" style="stop-color:#FF9800;stop-opacity:1" />
      <stop offset="100%" style="stop-color:#F57C00;stop-opacity:1" />
    </linearGradient>
    <linearGradient id="activeGradient" x1="0%" y1="0%" x2="100%" y2="100%">
      <stop offset="0%" style="stop-color:#2196F3;stop-opacity:1" />
      <stop offset="100%" style="stop-color:#1976D2;stop-opacity:1" />
    </linearGradient>
  </defs>
  
  <!-- Background circle -->
  <circle cx="64" cy="64" r="60" fill="#1E1E1E" stroke="#333" stroke-width="2"/>
  
  <!-- Tree branches -->
  <path d="M64 20 L64 45" stroke="url(#treeGradient)" stroke-width="3" stroke-linecap="round"/>
  <path d="M64 45 L45 65" stroke="url(#treeGradient)" stroke-width="3" stroke-linecap="round"/>
  <path d="M64 45 L83 65" stroke="url(#treeGradient)" stroke-width="3" stroke-linecap="round"/>
  <path d="M45 65 L35 85" stroke="url(#treeGradient)" stroke-width="2.5" stroke-linecap="round"/>
  <path d="M45 65 L55 85" stroke="url(#treeGradient)" stroke-width="2.5" stroke-linecap="round"/>
  <path d="M83 65 L73 85" stroke="url(#treeGradient)" stroke-width="2.5" stroke-linecap="round"/>
  <path d="M83 65 L93 85" stroke="url(#treeGradient)" stroke-width="2.5" stroke-linecap="round"/>
  <path d="M83 65 L100 80" stroke="url(#treeGradient)" stroke-width="2" stroke-linecap="round"/>
  
  <!-- Tree nodes (representing history states) -->
  <circle cx="64" cy="20" r="6" fill="url(#nodeGradient)" stroke="#FFF" stroke-width="1.5"/>
  <circle cx="64" cy="45" r="5" fill="url(#activeGradient)" stroke="#FFF" stroke-width="1.5"/>
  <circle cx="45" cy="65" r="4.5" fill="url(#nodeGradient)" stroke="#FFF" stroke-width="1"/>
  <circle cx="83" cy="65" r="4.5" fill="url(#nodeGradient)" stroke="#FFF" stroke-width="1"/>
  <circle cx="35" cy="85" r="4" fill="url(#nodeGradient)" stroke="#FFF" stroke-width="1"/>
  <circle cx="55" cy="85" r="4" fill="url(#nodeGradient)" stroke="#FFF" stroke-width="1"/>
  <circle cx="73" cy="85" r="4" fill="url(#nodeGradient)" stroke="#FFF" stroke-width="1"/>
  <circle cx="93" cy="85" r="4" fill="url(#nodeGradient)" stroke="#FFF" stroke-width="1"/>
  <circle cx="100" cy="80" r="3.5" fill="url(#nodeGradient)" stroke="#FFF" stroke-width="1"/>
  
  <!-- Ctrl+Z symbol overlay -->
  <g transform="translate(15, 100)">
    <rect x="0" y="0" width="30" height="18" rx="3" fill="#333" stroke="#555" stroke-width="1"/>
    <text x="15" y="12" text-anchor="middle" font-family="Arial, sans-serif" font-size="10" font-weight="bold" fill="#FFF">Ctrl</text>
  </g>
  
  <g transform="translate(48, 100)">
    <rect x="0" y="0" width="18" height="18" rx="3" fill="#333" stroke="#555" stroke-width="1"/>
    <text x="9" y="12" text-anchor="middle" font-family="Arial, sans-serif" font-size="12" font-weight="bold" fill="#FFF">Z</text>
  </g>
  
  <!-- Small arrow indicating tree flow -->
  <path d="M20 50 L28 46 L28 50 L35 50 L28 50 L28 54 Z" fill="#4CAF50" opacity="0.7"/>
  
</svg>
